<?xml version="1.0" encoding="utf-8"?>
<!-- Generator: Adobe Illustrator 27.8.1, SVG Export Plug-In . SVG Version: 6.00 Build 0)  -->
<svg version="1.1" id="Layer_1" xmlns="http://www.w3.org/2000/svg" xmlns:xlink="http://www.w3.org/1999/xlink" x="0px" y="0px"
	 viewBox="0 0 755.9 231.6" style="enable-background:new 0 0 755.9 231.6;" xml:space="preserve">
<style type="text/css">
	.st0{fill:#FFE600;}
	.st1{fill:#21409A;}
	.st2{fill:#FFFFFF;}
	.st3{fill-rule:evenodd;clip-rule:evenodd;}
	.st4{fill:#D71920;}
</style>
<g>
	
		<rect x="69.2" y="52" transform="matrix(0.7071 -0.7071 0.7071 0.7071 -42.8621 127.3775)" class="st0" width="126.3" height="126.9"/>
	<g>
		<rect x="2.5" y="2.5" class="st0" width="750.9" height="226.6"/>
		<path class="st1" d="M755.9,231.6H0V0h755.9V231.6z M5,226.6h745.9V5H5V226.6z"/>
	</g>
	<path class="st1" d="M167.9,115.6l-15.6,15.6l27,27l42.6-42.6l-42.7-42.7l-27,27L167.9,115.6z"/>
	<path class="st1" d="M85.2,158l27-27l-15.4-15.4l15.6-15.6l-27-27l-42.6,42.6L85.2,158z"/>
	<path class="st1" d="M132,79.9l15.6,15.6l27-27L132,25.9L89.3,68.7l27,27L132,79.9z"/>
	<path class="st1" d="M174.5,162.7l-27-27L132,151.1l-15.6-15.6l-27,27l42.6,42.6L174.5,162.7z"/>
	
		<rect x="85.9" y="67.8" transform="matrix(0.7071 -0.7071 0.7071 0.7071 -42.2144 127.4188)" class="st2" width="93.6" height="93.6"/>
	<g>
		
			<rect x="92.6" y="74.5" transform="matrix(0.7071 -0.7071 0.7071 0.7071 -42.2149 127.4162)" class="st0" width="80.3" height="80.3"/>
		<path d="M132.7,172.8l-58.2-58.2l58.2-58.2l58.2,58.2L132.7,172.8z M77.3,114.7l55.4,55.3l55.3-55.3l-55.3-55.3L77.3,114.7z"/>
	</g>
	<g>
		<path class="st3" d="M148.5,120.6h-1.1v-2.1h0.9l0.7-0.1l0.3,0l0.3-0.1c0.2-0.1,0.4-0.2,0.6-0.5c0.1-0.1,0.3-0.4,0.5-1l0.3-0.6
			l0.1-0.3l0.2-0.2c0.2-0.3,0.4-0.6,0.6-0.8c0.2-0.2,0.4-0.4,0.6-0.5c0.2-0.1,0.4-0.2,0.6-0.2c0.5,0,1,0.5,1.4,1.4
			c0.1,0.3,0.3,0.7,0.3,1c0.1,0.3,0.1,0.7,0.1,1.1l0,0.7c0,0.1,0,0.2-0.1,0.3l-0.1,0.3c-0.1,0.4-0.2,0.6-0.4,0.8
			c-0.2,0.2-0.4,0.3-0.5,0.3c-0.4-0.1-0.7-0.1-1-0.2c-0.1,0-0.3-0.1-0.5-0.2c-0.1,0-0.2-0.1-0.2-0.1c-0.1-0.1-0.2-0.1-0.3-0.2
			c-0.6-0.3-1-0.7-1.2-1.1c-0.2,0.9-0.5,1.5-0.8,1.8C149.6,120.3,149.2,120.5,148.5,120.6L148.5,120.6z M151.4,117
			c0.2,0.1,0.5,0.4,1.2,0.7l0.6,0.2l1,0.3c0-0.3,0-0.6-0.1-0.8c-0.1-0.2-0.2-0.5-0.4-0.7c-0.3-0.4-0.7-0.6-1.1-0.6
			C152.1,116.1,151.7,116.4,151.4,117L151.4,117z"/>
		<path class="st3" d="M122.7,120.6H122v-2.1l0.8,0c0.8,0,1.5-0.1,2-0.2c0.2-0.1,0.5-0.2,0.6-0.3c0.2-0.1,0.3-0.2,0.4-0.3l0.3-0.3
			l0.3-0.3c0.1-0.2,0.3-0.3,0.3-0.3c0.2,0,0.2,0.1,0.2,0.3c0,0.2-0.2,0.6-0.6,1.3h0.3h0.3h0.3h0.2h0.2h0.1h0.5c0.2,0,0.3,0,0.4-0.1
			c0.5,0,0.9-0.1,1-0.4l0.5-0.9c0.3-0.4,0.6-0.6,0.9-0.6l-0.6,1.7l0.9,0.3l0.5,0.1l0.6,0l0.7-1.7l0.6-0.6l-0.1,0.7
			c0,0.6,0.2,1.1,0.6,1.3c0.4,0.3,0.9,0.4,1.4,0.4h0.2v2.1H136c-0.9,0-1.5-0.1-1.8-0.4c-0.3-0.3-0.6-0.7-0.9-1.3l-0.1,0.3l-0.1,0.3
			l-0.1,0.2l-0.2,0.3c-0.2,0.2-0.6,0.4-1.2,0.4c-0.8,0-1.6-0.2-2.2-0.5c-0.3,0.1-0.7,0.3-1.3,0.4l-1,0.1l-1.5,0l0.3-0.8
			c-0.2,0.1-0.5,0.3-0.7,0.4c-0.2,0.1-0.5,0.2-0.7,0.3c-0.3,0.1-0.6,0.1-0.8,0.1C123.2,120.6,123,120.6,122.7,120.6L122.7,120.6z"/>
		<path class="st3" d="M147.7,120.6h-0.4c-0.4,0-0.7-0.1-0.9-0.4c-0.2-0.3-0.3-0.6-0.4-0.9l-0.2-0.5c-0.1,0-0.1,0-0.1,0.1l-0.1,0.3
			c-0.1,0.2-0.2,0.4-0.3,0.7c-0.1,0.2-0.3,0.3-0.7,0.5c-0.4,0.2-0.8,0.3-1.4,0.3h-0.8v-2.1h1.5c0.3,0,0.5,0,0.7-0.1
			c0.2-0.1,0.4-0.2,0.5-0.3c0.2-0.2,0.4-0.6,0.4-1.2v-30l0.3-0.6l0.3-0.8c0.3-0.6,0.4-1,0.4-1v32.1c0,1.3,0.4,2,1.2,2V120.6
			L147.7,120.6z"/>
		<path class="st3" d="M141.4,125.1l-1.3-1.2l1.2-1.3l1.3,1.2L141.4,125.1L141.4,125.1z M138.6,125.2l-1.4-1.2l1.4-1.3l1.3,1.2
			L138.6,125.2L138.6,125.2z M142.9,120.7h-1.2c-0.2,0-0.5,0-0.6-0.1c-0.2,0-0.4-0.1-0.5-0.3c-0.2-0.2-0.5-0.6-0.7-1.1
			c-0.1,0.3-0.3,0.5-0.4,0.6c-0.1,0.1-0.4,0.3-0.8,0.5c-0.1,0-0.2,0.1-0.3,0.1c-0.1,0-0.3,0.1-0.5,0.1c-0.2,0-0.4,0.1-0.7,0.1h-1.1
			v-2.1h1.7c0.7,0,1.2-0.1,1.5-0.4c0.3-0.3,0.6-0.6,0.7-1l0.2-0.5l0-0.1l0.1,0.1l0.2,0.3l0.1,0.3l0,0.2l0.1,0.2
			c0.1,0.2,0.3,0.4,0.6,0.6c0.3,0.2,0.8,0.3,1.4,0.3h0.1V120.7L142.9,120.7z"/>
		<path class="st3" d="M120.9,125.1l-1.3-1.2l1.2-1.3l1.3,1.2L120.9,125.1L120.9,125.1z M118.1,125.2l-1.4-1.2l1.3-1.3l1.3,1.2
			L118.1,125.2L118.1,125.2z M122.4,120.7h-1.2c-0.2,0-0.5,0-0.6-0.1c-0.2,0-0.4-0.1-0.5-0.3c-0.2-0.2-0.5-0.6-0.7-1.1
			c-0.1,0.3-0.3,0.5-0.4,0.6c-0.1,0.1-0.4,0.3-0.8,0.5c-0.1,0-0.2,0.1-0.3,0.1c-0.1,0-0.3,0.1-0.5,0.1c-0.2,0-0.4,0.1-0.7,0.1h-1.1
			v-2.1h1.7c0.7,0,1.2-0.1,1.5-0.4c0.3-0.3,0.6-0.6,0.7-1l0.2-0.5l0-0.1l0.1,0.1l0.2,0.3l0.1,0.3l0,0.2l0.1,0.2
			c0.1,0.2,0.3,0.4,0.6,0.6c0.3,0.2,0.8,0.3,1.4,0.3h0.1V120.7L122.4,120.7z"/>
		<path class="st3" d="M132.7,103.2h-0.3c-0.5-0.2-0.9-0.4-1.3-0.7c-0.2-0.2-0.5-0.7-0.7-1.4l0-0.5v-0.9V74.8c0.5-1.2,0.8-1.8,1-1.9
			v25.1c0,0.4,0,0.8,0.1,1.1c0,0.2,0.1,0.3,0.1,0.5c0,0.2,0.1,0.3,0.2,0.5c0.2,0.4,0.5,0.7,0.9,0.9h0.1V103.2L132.7,103.2z"/>
		<path class="st3" d="M141.1,103.6c-0.1,0-0.1-0.2-0.1-0.7V83.6l0.3-0.7l0.4-0.8c0.3-0.5,0.4-0.8,0.5-0.8v18.8l0,0.6
			c0,0.1,0,0.2-0.1,0.4c0,0.1,0,0.2,0,0.2c0,0,0,0,0,0.1c0,0,0,0.1-0.1,0.2c-0.1,0.6-0.3,1.1-0.4,1.5
			C141.4,103.4,141.2,103.6,141.1,103.6L141.1,103.6z"/>
		<path class="st3" d="M133.8,103.2h-1.1v-2.1h0.9l0.7-0.1l0.3,0l0.3-0.1c0.2-0.1,0.4-0.2,0.6-0.5c0.1-0.1,0.3-0.4,0.5-1l0.3-0.6
			l0.1-0.3l0.2-0.2c0.2-0.3,0.4-0.6,0.6-0.8c0.2-0.2,0.4-0.4,0.6-0.5c0.2-0.1,0.4-0.2,0.6-0.2c0.5,0,1,0.5,1.4,1.4
			c0.1,0.3,0.3,0.7,0.3,1c0.1,0.3,0.1,0.7,0.1,1.1l0,0.7c0,0.1,0,0.2-0.1,0.3l-0.1,0.3c-0.1,0.4-0.2,0.6-0.4,0.8
			c-0.2,0.2-0.4,0.3-0.5,0.3c-0.4-0.1-0.7-0.1-1-0.2c-0.1,0-0.3-0.1-0.5-0.2c-0.1,0-0.2-0.1-0.2-0.1c-0.1-0.1-0.2-0.1-0.3-0.2
			c-0.6-0.3-1-0.7-1.2-1.1c-0.2,0.9-0.5,1.5-0.8,1.8C134.8,102.9,134.4,103,133.8,103.2L133.8,103.2z M136.6,99.5
			c0.2,0.1,0.5,0.4,1.2,0.7l0.6,0.2l1,0.3c0-0.3,0-0.6-0.1-0.8c-0.1-0.2-0.2-0.5-0.4-0.7c-0.3-0.4-0.7-0.6-1.1-0.6
			C137.3,98.7,136.9,99,136.6,99.5L136.6,99.5z"/>
		<path class="st3" d="M125.6,103.6h-1.9v-2.1h1.9c1,0,1.5-0.2,1.5-0.6c0-0.1,0-0.3-0.1-0.4l-0.3-0.7l-0.3-0.7l0.7-1.8
			c0.3,0.3,0.5,0.8,0.7,1.4l0.2,0.9c0,0.3,0.1,0.6,0.1,0.8v0.4c0,0.1,0,0.1,0,0.2c0,0,0,0.1-0.1,0.2c-0.2,0.8-0.5,1.5-0.9,1.8
			C126.7,103.4,126.2,103.6,125.6,103.6L125.6,103.6z M126.1,95.3l-1.4-1.1l1.2-1.4l1.4,1.2L126.1,95.3L126.1,95.3z"/>
		<path class="st3" d="M121.7,88.8c-0.1,0.6-0.4-1.4-0.4-2.6l-0.5,0.6c-0.3,0.3-0.6,0.6-0.8,0.7c-0.3,0.1-0.6,0.1-0.9,0.1
			c-1.1,0-1.9-0.2-2.4-0.7c-0.2-0.1-0.3-0.2-0.3-0.5c0-0.3,0.1-0.6,0.3-1l0.2-0.4l0.4-0.5l1.4-0.7l1.6-0.8c0.3-0.2,0.6-0.4,0.9-0.6
			l-0.1-0.6l0.4-0.9c0.1-0.3,0.2-0.4,0.4-0.6l0.1,2.8C122.1,85.4,122.2,86.5,121.7,88.8L121.7,88.8z M121.3,85.5l0.1-0.8v-0.2v-0.2
			v-0.2c0-0.3,0-0.6-0.1-0.7l-0.2,0.1l-0.4,0.2l-1.1,0.6c-0.3,0.1-0.5,0.3-0.7,0.4c-0.2,0.1-0.4,0.2-0.5,0.3c0.4,0.3,1,0.5,1.8,0.5
			l0.5,0L121.3,85.5L121.3,85.5z"/>
		<path class="st3" d="M123.7,103.6h-0.3c-0.5-0.2-0.9-0.4-1.4-0.7c-0.2-0.2-0.5-0.7-0.7-1.5l0-0.5V100V83.7
			c0.5-1.2,0.5-2.1,0.6-2.2l0.4,16.9c0,0.4,0,0.8,0.1,1.1c0,0.2,0.1,0.3,0.1,0.5c0,0.2,0.1,0.3,0.2,0.5c0.2,0.4,0.5,0.7,0.9,0.9h0.1
			V103.6L123.7,103.6z"/>
		<path class="st3" d="M147.5,103.6c-0.1,0-0.1-0.2-0.1-0.7V84.5l0.3-0.7l0.4-0.8c0.3-0.5,0.4-0.8,0.5-0.8v17.8l0,0.6
			c0,0.1,0,0.2-0.1,0.4c0,0.1,0,0.2,0,0.2c0,0,0,0,0,0.1c0,0,0,0.1-0.1,0.2c-0.1,0.6-0.3,1.1-0.4,1.5
			C147.9,103.4,147.7,103.6,147.5,103.6L147.5,103.6z"/>
		<path class="st3" d="M137.9,111.4h0.8c1,0,2-0.1,2.8-0.3c0.9-0.2,1.7-0.4,2.4-0.7l1.9-0.8l-1.5-0.5l-1-0.2l-0.3-0.1l-0.3-0.1
			l-0.9-0.1l-1.1,0h-0.2h-0.2l-0.2,0l-0.2,0l-0.2-0.1l0.6-0.7l0.4-0.5l0.4-0.5c0.2-0.2,0.5-0.3,0.7-0.4c0.2,0,0.6,0,1,0.2
			c0.3,0.1,0.8,0.2,1.5,0.5l1.3,0.4l1.1,0.3l1.6,0.5l1.1,0.2l1,0.2l1,0.1l1,0l-1.2,1.8c-0.3-0.1-0.9-0.2-1.8-0.2
			c-1,0-1.9,0.1-2.7,0.3l-2,0.7l-2.3,0.8c-0.5,0.2-0.9,0.3-1.3,0.5c-0.3,0.1-0.6,0.2-0.9,0.3l-0.6,0.2l-0.7,0.1h-1V111.4
			L137.9,111.4z"/>
		<path class="st3" d="M136.6,107.7l-1.4-1.2l1.3-1.3l1.4,1.2L136.6,107.7L136.6,107.7z M133.6,107.8l-1.5-1.2l1.5-1.3l1.4,1.2
			L133.6,107.8L133.6,107.8z M138.1,113.5h-1.3c-0.6,0-1-0.1-1.2-0.4c-0.3-0.2-0.5-0.6-0.8-1.1l-0.3,0.3l-0.3,0.3
			c-0.1,0.1-0.4,0.3-0.8,0.5c-0.2,0.1-0.4,0.1-0.7,0.2l-0.4,0h-0.5h-2.7v-2.1h3.4c0.7,0,1.3-0.1,1.6-0.4c0.3-0.2,0.6-0.6,0.8-1
			l0.3-0.5c0.1,0,0.2,0.1,0.3,0.4l0.1,0.4l0.1,0.3c0,0.1,0.3,0.3,0.7,0.6c0.3,0.2,0.9,0.3,1.6,0.3h0.1V113.5L138.1,113.5z"/>
		<path class="st3" d="M129.7,113.5h-1.2c-0.2,0-0.5,0-0.6-0.1c-0.2,0-0.4-0.1-0.5-0.3c-0.2-0.2-0.5-0.6-0.7-1.1
			c-0.1,0.3-0.3,0.5-0.4,0.7c-0.1,0.1-0.4,0.3-0.8,0.5c-0.1,0-0.2,0.1-0.3,0.1c-0.1,0-0.3,0.1-0.5,0.1c-0.2,0-0.4,0.1-0.7,0.1h-5.8
			v-2.1h6.4c0.7,0,1.2-0.1,1.5-0.4c0.3-0.3,0.6-0.6,0.7-1l0.2-0.5l0-0.1l0.1,0.1l0.2,0.3l0.1,0.3l0,0.2l0.1,0.2
			c0.1,0.2,0.3,0.4,0.6,0.6c0.3,0.2,0.8,0.3,1.4,0.3h0.1V113.5L129.7,113.5z"/>
		<polygon class="st3" points="121.7,116.6 120.3,115.4 121.7,114.1 123,115.4 121.7,116.6 		"/>
		<polygon class="st3" points="124.5,116.6 123.2,115.4 124.4,114.1 125.7,115.3 124.5,116.6 		"/>
		<path class="st3" d="M115.9,120.7h-0.3c-0.5-0.1-0.9-0.4-1.3-0.7c-0.2-0.2-0.5-0.7-0.7-1.5l0-0.5v-0.9v-30c0.5-1.2,0.8-1.8,1-1.9
			v30.4c0,0.4,0,0.8,0.1,1.1c0,0.2,0.1,0.3,0.1,0.5c0,0.2,0.1,0.3,0.2,0.5c0.2,0.4,0.5,0.7,0.9,0.9h0.1V120.7L115.9,120.7z"/>
		<path class="st3" d="M118.2,113.5h-0.3c-0.5-0.1-0.9-0.4-1.3-0.7c-0.2-0.2-0.5-0.7-0.7-1.5l0-0.5v-0.9V84.5c0.5-1.2,0.8-1.8,1-1.9
			v25.7c0,0.4,0,0.8,0.1,1.1c0,0.2,0.1,0.3,0.1,0.5c0,0.2,0.1,0.3,0.2,0.5c0.2,0.4,0.5,0.7,0.9,0.9h0.1V113.5L118.2,113.5z"/>
		<path class="st3" d="M112,108.1c0.1,0,0.2,0.2,0.5,0.5c0.2,0.3,0.4,0.8,0.6,1.4c0.1,0.2,0.2,0.5,0.2,0.8c0.1,0.3,0.1,0.6,0.1,0.8
			l0,0.6l0,0.3l-0.1,0.3l-0.1,0.3l-0.1,0.3l-0.3,0.6c-0.3,0.8-0.8,1.6-1.4,2.2c-0.2,0.3-0.5,0.5-0.8,0.7c-0.3,0.2-0.6,0.3-1,0.3
			c-0.2,0-0.3,0-0.5-0.1c-0.1,0-0.2,0-0.4-0.1c-0.1,0-0.3-0.1-0.5-0.1l-0.5-0.2l-0.4-0.1c-0.1,0-0.3-0.1-0.4-0.1
			c-0.2-0.1-0.3-0.1-0.5-0.2c-0.6-0.2-0.9-0.4-1-0.5c0-0.1,0-0.1,0.1-0.1l0.8,0.1c0.6,0.1,1,0.1,1.2,0.1c0.9,0,1.6-0.2,2.3-0.5
			c0.4-0.2,0.7-0.3,0.9-0.5c0.2-0.2,0.5-0.4,0.7-0.6c0.4-0.5,0.8-0.9,1-1.3l0.2-0.6l0.1-0.3c0-0.2-0.2-0.5-0.5-1.1
			c-0.1-0.3-0.3-0.5-0.4-0.7c-0.1-0.2-0.3-0.4-0.4-0.5L112,108.1L112,108.1z"/>
		<polygon class="st3" points="143.8,106.5 142.5,105.3 143.7,104 145,105.2 143.8,106.5 		"/>
	</g>
	<g>
		<path class="st4" d="M116.1,139.2l-1.1,3.9h-3.6l4.7-15.4h4.6l4.8,15.4h-3.8l-1.2-3.9H116.1z M120,136.6l-1-3.3
			c-0.3-0.9-0.5-2.1-0.8-3h0c-0.2,0.9-0.5,2.1-0.7,3l-0.9,3.3H120z"/>
		<path class="st4" d="M130.9,127.8v15.4h-3.5v-15.4H130.9z"/>
		<path class="st4" d="M146.9,137.3c-0.1-1.8-0.1-4.1-0.1-6.3h0c-0.5,2-1.1,4.1-1.7,6l-1.9,6h-2.7l-1.6-5.9c-0.5-1.8-1-4-1.4-6h0
			c-0.1,2.1-0.2,4.4-0.3,6.4l-0.3,5.8h-3.2l1-15.4h4.6l1.5,5.1c0.5,1.8,1,3.7,1.3,5.5h0.1c0.4-1.8,0.9-3.8,1.5-5.5l1.6-5.1h4.6
			l0.8,15.4h-3.4L146.9,137.3z"/>
	</g>
	<g>
		<g>
			<path class="st1" d="M256.4,84.5l-3.2,11.6h-10.5L256.4,51h13.4l14,45.1h-11l-3.5-11.6H256.4z M267.9,76.9l-2.8-9.6
				c-0.8-2.7-1.6-6-2.3-8.7h-0.1c-0.7,2.7-1.3,6.1-2.1,8.7l-2.7,9.6H267.9z"/>
			<path class="st1" d="M284.5,96.6h-12.1L269,85h-12.2l-3.2,11.6h-11.6l14-46.1h14.1l0.1,0.4L284.5,96.6z M273.2,95.6h10
				l-13.7-44.1h-12.6l-13.4,44.1h9.4l3.2-11.6h13.7L273.2,95.6z M268.5,77.4h-11.3l2.9-10.2c0.4-1.6,0.9-3.4,1.3-5.2
				c0.3-1.2,0.5-2.4,0.8-3.5l0.1-0.4h0.9l0.4,1.7c0.6,2.4,1.3,5.1,1.9,7.3L268.5,77.4z M258.6,76.4h8.6l-2.6-8.9
				c-0.6-2.1-1.3-4.7-1.9-7c-0.1,0.6-0.3,1.2-0.4,1.7c-0.4,1.8-0.8,3.7-1.3,5.2L258.6,76.4z"/>
		</g>
		<g>
			<path class="st1" d="M289.1,73.8c0-4.1-0.1-7.5-0.3-10.4h8.6l0.4,4.4h0.2c1.4-2.1,4.3-5.2,9.9-5.2c4.3,0,7.6,2.2,9,5.6h0.1
				c1.3-1.7,2.7-3.1,4.3-4c1.8-1,3.8-1.6,6.2-1.6c6.3,0,11,4.4,11,14.2v19.3h-9.9V78.3c0-4.7-1.5-7.5-4.8-7.5c-2.4,0-4,1.6-4.7,3.5
				c-0.2,0.7-0.3,1.7-0.3,2.6v19.1h-9.9V77.7c0-4.1-1.5-6.9-4.7-6.9c-2.6,0-4.1,2-4.7,3.6c-0.3,0.8-0.4,1.7-0.4,2.6v19.1h-9.9V73.8z
				"/>
			<path class="st1" d="M339.1,96.6h-10.9V78.3c0-4.6-1.5-7-4.3-7c-2.8,0-3.9,2.3-4.3,3.2c-0.2,0.7-0.3,1.6-0.3,2.4v19.6h-10.9V77.7
				c0-2.4-0.6-6.4-4.2-6.4c-2.2,0-3.7,1.7-4.3,3.3c-0.3,0.8-0.4,1.7-0.4,2.4v19.6h-10.9V73.8c0-4-0.1-7.4-0.3-10.4l0-0.5h9.6
				l0.3,3.8c1.8-2.3,4.8-4.6,9.7-4.6c4.1,0,7.5,2,9.1,5.3c1.2-1.6,2.5-2.7,4-3.6c2-1.1,4.1-1.7,6.5-1.7c7.2,0,11.5,5.5,11.5,14.7
				V96.6z M329.2,95.6h8.9V76.8c0-8.7-3.8-13.7-10.5-13.7c-2.2,0-4.1,0.5-6,1.5c-1.5,0.9-2.9,2.1-4.1,3.9l-0.1,0.2h-0.7l-0.1-0.3
				c-1.4-3.3-4.5-5.3-8.5-5.3c-5.1,0-8,2.7-9.5,5l-0.1,0.2h-0.9l-0.4-4.4h-7.6c0.1,2.9,0.2,6.2,0.2,9.9v21.8h8.9V77
				c0-0.8,0-1.9,0.4-2.8c0.7-1.9,2.5-3.9,5.2-3.9c3.3,0,5.2,2.7,5.2,7.4v17.9h8.9V76.9c0-0.9,0.1-1.9,0.4-2.7
				c0.9-2.5,2.9-3.9,5.2-3.9c2.4,0,5.3,1.4,5.3,8V95.6z"/>
		</g>
		<g>
			<path class="st1" d="M373.8,88.2c0,3.1,0.1,6.1,0.5,7.9h-9.2l-0.6-3.3h-0.2c-2.1,2.6-5.5,4-9.4,4c-6.6,0-10.6-4.8-10.6-10
				c0-8.5,7.6-12.5,19.2-12.5v-0.4c0-1.8-0.9-4.3-6-4.3c-3.3,0-6.9,1.1-9,2.5l-1.9-6.6c2.3-1.3,6.8-2.9,12.7-2.9
				c10.9,0,14.3,6.4,14.3,14.2V88.2z M364,80.6c-5.3,0-9.5,1.3-9.5,5.1c0,2.6,1.7,3.9,4,3.9c2.5,0,4.6-1.7,5.3-3.7
				c0.1-0.5,0.2-1.1,0.2-1.7V80.6z"/>
			<path class="st1" d="M355,97.3c-7.2,0-11.1-5.4-11.1-10.5c0-8.2,7-12.9,19.2-13c0-2.4-1.9-3.7-5.4-3.7c-3.4,0-6.9,1.2-8.8,2.4
				l-0.6,0.4l-2.2-7.6l0.3-0.2c1.3-0.7,5.9-3,12.9-3c9.7,0,14.8,5.1,14.8,14.7v11.4c0,3.6,0.2,6.2,0.5,7.8l0.1,0.6h-10.2l-0.5-2.9
				C362,96,358.8,97.3,355,97.3z M363.6,74.8c-7,0-18.7,1.6-18.7,12c0,4.7,3.5,9.5,10.1,9.5c3.8,0,6.9-1.4,9-3.8l0.2-0.2h0.9
				l0.6,3.3h8.1c-0.3-1.7-0.4-4.1-0.4-7.4V76.7c0-9.1-4.6-13.7-13.8-13.7c-6.2,0-10.5,1.9-12.1,2.7l1.6,5.5c2.4-1.4,5.8-2.2,8.7-2.2
				c5.6,0,6.5,3,6.5,4.8v0.9H363.6z M358.5,90.1c-2.8,0-4.5-1.7-4.5-4.4c0-3.7,3.4-5.6,10-5.6h0.5v4c0,0.7-0.1,1.3-0.2,1.9
				C363.5,88.4,361.1,90.1,358.5,90.1z M363.5,81.1c-5.6,0.1-8.5,1.6-8.5,4.6c0,2.1,1.3,3.4,3.5,3.4c2.2,0,4.2-1.4,4.8-3.4
				c0.1-0.5,0.2-1,0.2-1.6V81.1z"/>
		</g>
		<g>
			<path class="st1" d="M381.9,73.8c0-4.1-0.1-7.5-0.3-10.4h8.8l0.5,4.5h0.2c1.3-2.1,4.6-5.3,10.1-5.3c6.7,0,11.7,4.5,11.7,14.1
				v19.3h-10.2V77.9c0-4.2-1.5-7.1-5.1-7.1c-2.8,0-4.5,1.9-5.2,3.8c-0.3,0.7-0.3,1.6-0.3,2.5v18.9h-10.2V73.8z"/>
			<path class="st1" d="M413.4,96.6h-11.2V77.9c0-4.4-1.6-6.6-4.6-6.6c-3,0-4.3,2.4-4.7,3.5c-0.2,0.5-0.3,1.3-0.3,2.4v19.4h-11.2
				V73.8c0-4-0.1-7.4-0.3-10.4l0-0.5h9.8l0.4,3.9c1.4-1.7,4.4-4.7,9.9-4.7c7.6,0,12.2,5.5,12.2,14.6V96.6z M403.2,95.6h9.2V76.7
				c0-8.6-4.1-13.6-11.2-13.6c-6,0-8.9,3.9-9.7,5l-0.1,0.2h-0.9l-0.5-4.5h-7.9c0.1,2.9,0.2,6.2,0.2,9.9v21.8h9.2V77.2
				c0-1.2,0.1-2.1,0.4-2.7c1-2.6,3.1-4.1,5.7-4.1c3.6,0,5.6,2.7,5.6,7.6V95.6z"/>
		</g>
		<g>
			<path class="st1" d="M448.3,88.2c0,3.1,0.1,6.1,0.5,7.9h-9.2l-0.6-3.3h-0.2c-2.1,2.6-5.5,4-9.4,4c-6.6,0-10.6-4.8-10.6-10
				c0-8.5,7.6-12.5,19.2-12.5v-0.4c0-1.8-0.9-4.3-6-4.3c-3.3,0-6.9,1.1-9,2.5l-1.9-6.6c2.3-1.3,6.8-2.9,12.7-2.9
				c10.9,0,14.3,6.4,14.3,14.2V88.2z M438.5,80.6c-5.3,0-9.5,1.3-9.5,5.1c0,2.6,1.7,3.9,4,3.9c2.5,0,4.6-1.7,5.3-3.7
				c0.1-0.5,0.2-1.1,0.2-1.7V80.6z"/>
			<path class="st1" d="M429.5,97.3c-7.2,0-11.1-5.4-11.1-10.5c0-8.2,7-12.9,19.2-13c0-2.4-1.9-3.7-5.5-3.7c-3.4,0-6.9,1.2-8.8,2.4
				l-0.6,0.4l-2.2-7.6l0.3-0.2c1.3-0.7,5.9-3,12.9-3c9.7,0,14.8,5.1,14.8,14.7v11.4c0,3.6,0.2,6.2,0.5,7.8l0.1,0.6h-10.2l-0.5-2.9
				C436.5,96,433.3,97.3,429.5,97.3z M438.1,74.8c-7,0-18.7,1.6-18.7,12c0,4.7,3.5,9.5,10.1,9.5c3.8,0,6.9-1.4,9-3.8l0.2-0.2h0.9
				l0.6,3.3h8.1c-0.3-1.7-0.4-4.1-0.4-7.4V76.7c0-9.1-4.6-13.7-13.8-13.7c-6.2,0-10.5,1.9-12.1,2.7l1.6,5.5c2.4-1.4,5.8-2.2,8.7-2.2
				c5.6,0,6.5,3,6.5,4.8v0.9H438.1z M433,90.1c-2.8,0-4.5-1.7-4.5-4.4c0-3.7,3.4-5.6,10-5.6h0.5v4c0,0.7-0.1,1.3-0.2,1.9
				C438,88.4,435.5,90.1,433,90.1z M438,81.1c-5.6,0.1-8.5,1.6-8.5,4.6c0,2.1,1.3,3.4,3.5,3.4c2.1,0,4.2-1.4,4.8-3.4
				c0.1-0.5,0.2-1,0.2-1.6V81.1z"/>
		</g>
		<g>
			<path class="st1" d="M456.4,48.6h10.2v18.7h0.1c1.1-1.5,2.4-2.6,4-3.4c1.5-0.8,3.4-1.3,5.3-1.3c6.5,0,11.4,4.5,11.4,14.4v19.1
				h-10.2v-18c0-4.3-1.5-7.2-5.3-7.2c-2.7,0-4.3,1.7-5.1,3.6c-0.3,0.6-0.3,1.5-0.3,2.2v19.4h-10.2V48.6z"/>
			<path class="st1" d="M487.9,96.6h-11.2V78.1c0-4.5-1.6-6.7-4.8-6.7c-3,0-4.2,2.3-4.6,3.3c-0.2,0.4-0.3,1.1-0.3,2v19.9h-11.2V48.1
				H467v18c1-1.1,2.1-2,3.4-2.6c1.6-0.9,3.6-1.3,5.5-1.3c7.5,0,11.9,5.6,11.9,14.9V96.6z M477.7,95.6h9.2V77c0-8.8-4-13.9-10.9-13.9
				c-1.8,0-3.5,0.4-5.1,1.2c-1.5,0.8-2.8,1.9-3.8,3.3l-0.1,0.2H466V49.1h-9.2v46.5h9.2V76.7c0-1,0.1-1.8,0.4-2.4
				c1-2.4,3-3.9,5.5-3.9c2.6,0,5.8,1.3,5.8,7.7V95.6z"/>
		</g>
		<g>
			<path class="st1" d="M519.6,51v45.1h-10.2V51H519.6z"/>
			<path class="st1" d="M520.1,96.6H509V50.5h11.2V96.6z M510,95.6h9.2V51.5H510V95.6z"/>
		</g>
		<g>
			<path class="st1" d="M538.5,77.1h0.1c0.7-1.4,1.5-2.7,2.3-3.9l6.6-9.8h12.2l-11.7,13.2l13.4,19.5H549l-8-13.4l-2.5,3.2v10.2
				h-10.2V48.6h10.2V77.1z"/>
			<path class="st1" d="M562.4,96.6h-13.7L541,83.5l-2,2.5v10.6h-11.2V48.1H539v27.3c0.5-0.9,1-1.7,1.6-2.5l6.8-10.1h13.6
				l-12.2,13.8L562.4,96.6z M549.3,95.6h11.3l-13.1-19l11.2-12.7h-10.9l-6.5,9.6c-0.8,1.3-1.6,2.6-2.3,3.9l-0.1,0.3H538V49.1h-9.2
				v46.5h9.2v-9.9l3.1-3.9L549.3,95.6z"/>
		</g>
		<g>
			<path class="st1" d="M565.3,48.6h10.2v18.7h0.1c1.1-1.5,2.4-2.6,4-3.4c1.5-0.8,3.4-1.3,5.3-1.3c6.5,0,11.4,4.5,11.4,14.4v19.1
				h-10.2v-18c0-4.3-1.5-7.2-5.3-7.2c-2.7,0-4.3,1.7-5.1,3.6c-0.3,0.6-0.3,1.5-0.3,2.2v19.4h-10.2V48.6z"/>
			<path class="st1" d="M596.8,96.6h-11.2V78.1c0-4.5-1.6-6.7-4.8-6.7c-3,0-4.2,2.3-4.6,3.3c-0.2,0.4-0.3,1.1-0.3,2v19.9h-11.2V48.1
				H576v18c1-1.1,2.1-2,3.4-2.6c1.6-0.9,3.6-1.3,5.5-1.3c7.5,0,11.9,5.6,11.9,14.9V96.6z M586.7,95.6h9.2V77c0-8.8-4-13.9-10.9-13.9
				c-1.8,0-3.5,0.4-5.1,1.2c-1.5,0.8-2.8,1.9-3.8,3.3l-0.1,0.2H575V49.1h-9.2v46.5h9.2V76.7c0-1,0.1-1.8,0.4-2.4
				c1-2.4,3-3.9,5.5-3.9c2.6,0,5.8,1.3,5.8,7.7V95.6z"/>
		</g>
		<g>
			<path class="st1" d="M615.5,54.5v8.8h7.3v7.5h-7.3v11.8c0,3.9,1,5.8,4,5.8c1.4,0,2.1-0.1,3-0.3l0.1,7.7c-1.3,0.5-3.7,0.9-6.6,0.9
				c-3.3,0-6-1.1-7.7-2.8c-1.9-1.9-2.8-5.1-2.8-9.7V70.9h-4.3v-7.5h4.3v-6.1L615.5,54.5z"/>
			<path class="st1" d="M616,97.2c-3.2,0-6.2-1.1-8-3c-2-2.1-3-5.3-3-10V71.4h-4.3v-8.5h4.3v-6l11-3v9h7.3v8.5H616v11.3
				c0,3.9,0.9,5.2,3.5,5.2c1.3,0,2-0.1,2.9-0.3l0.6-0.1l0.1,8.7l-0.3,0.1C621.2,96.9,618.6,97.2,616,97.2z M601.6,70.4h4.3v13.9
				c0,4.4,0.9,7.5,2.7,9.3c1.7,1.7,4.4,2.7,7.3,2.7c2.7,0,4.9-0.4,6-0.7l-0.1-6.7c-0.7,0.1-1.4,0.2-2.5,0.2c-4,0-4.5-3.2-4.5-6.2
				V70.4h7.3v-6.5H615v-8.7l-9,2.5v6.2h-4.3V70.4z"/>
		</g>
		<g>
			<path class="st1" d="M639.1,54.3c0,2.8-2.1,5.1-5.5,5.1c-3.2,0-5.3-2.3-5.3-5.1c0-2.9,2.1-5.1,5.4-5.1
				C637.1,49.2,639.1,51.4,639.1,54.3z M628.6,96.1V63.4h10.2v32.7H628.6z"/>
			<path class="st1" d="M639.3,96.6h-11.2V62.9h11.2V96.6z M629.1,95.6h9.2V63.9h-9.2V95.6z M633.6,59.9c-3.4,0-5.8-2.3-5.8-5.6
				c0-3.2,2.5-5.6,5.9-5.6c3.4,0,5.8,2.3,5.8,5.6C639.6,57.6,637.2,59.9,633.6,59.9z M633.8,49.7c-2.9,0-4.9,1.9-4.9,4.6
				c0,2.7,2,4.6,4.8,4.6c2.9,0,5-1.9,5-4.6C638.6,51.5,636.6,49.7,633.8,49.7z"/>
		</g>
		<g>
			<path class="st1" d="M674.2,88.2c0,3.1,0.1,6.1,0.5,7.9h-9.2l-0.6-3.3h-0.2c-2.1,2.6-5.5,4-9.4,4c-6.6,0-10.6-4.8-10.6-10
				c0-8.5,7.6-12.5,19.2-12.5v-0.4c0-1.8-0.9-4.3-6-4.3c-3.3,0-6.9,1.1-9,2.5l-1.9-6.6c2.3-1.3,6.8-2.9,12.7-2.9
				c10.9,0,14.3,6.4,14.3,14.2V88.2z M664.3,80.6c-5.3,0-9.5,1.3-9.5,5.1c0,2.6,1.7,3.9,4,3.9c2.5,0,4.6-1.7,5.3-3.7
				c0.1-0.5,0.2-1.1,0.2-1.7V80.6z"/>
			<path class="st1" d="M655.4,97.3c-7.2,0-11.1-5.4-11.1-10.5c0-8.2,7-12.9,19.2-13c0-2.4-1.9-3.7-5.5-3.7c-3.4,0-6.9,1.2-8.8,2.4
				l-0.6,0.4l-2.2-7.6l0.3-0.2c1.3-0.7,5.9-3,12.9-3c9.7,0,14.8,5.1,14.8,14.7v11.4c0,3.6,0.2,6.2,0.5,7.8l0.1,0.6h-10.2l-0.5-2.9
				C662.4,96,659.1,97.3,655.4,97.3z M664,74.8c-7,0-18.7,1.6-18.7,12c0,4.7,3.5,9.5,10.1,9.5c3.8,0,6.9-1.4,9-3.8l0.2-0.2h0.9
				l0.6,3.3h8.1c-0.3-1.7-0.4-4.1-0.4-7.4V76.7c0-9.1-4.6-13.7-13.8-13.7c-6.2,0-10.5,1.9-12.1,2.7l1.6,5.5c2.4-1.4,5.8-2.2,8.7-2.2
				c5.6,0,6.5,3,6.5,4.8v0.9H664z M658.8,90.1c-2.8,0-4.5-1.7-4.5-4.4c0-3.7,3.4-5.6,10-5.6h0.5v4c0,0.7-0.1,1.3-0.2,1.9
				C663.8,88.4,661.4,90.1,658.8,90.1z M663.8,81.1c-5.6,0.1-8.5,1.6-8.5,4.6c0,2.1,1.3,3.4,3.5,3.4c2.1,0,4.2-1.4,4.8-3.4
				c0.1-0.5,0.2-1,0.2-1.6V81.1z"/>
		</g>
		<g>
			<path class="st1" d="M682.3,74.1c0-4.8-0.1-8-0.3-10.8h8.7l0.4,6h0.3c1.7-4.8,5.6-6.8,8.8-6.8c0.9,0,1.4,0.1,2.1,0.2v9.6
				c-0.8-0.1-1.6-0.3-2.7-0.3c-3.7,0-6.3,2-7,5.1c-0.1,0.7-0.2,1.5-0.2,2.3v16.6h-10.2V74.1z"/>
			<path class="st1" d="M692.9,96.6h-11.2V74.1c0-5-0.1-8-0.3-10.7l0-0.5h9.7l0.3,4.9c2.1-4.2,5.9-5.7,8.7-5.7c1,0,1.5,0.1,2.2,0.2
				l0.4,0.1v10.6l-0.6-0.1c-0.8-0.1-1.6-0.3-2.7-0.3c-3.4,0-5.8,1.8-6.5,4.8c-0.1,0.6-0.2,1.4-0.2,2.2V96.6z M682.8,95.6h9.2V79.5
				c0-0.9,0.1-1.7,0.2-2.4c0.7-3.5,3.5-5.6,7.4-5.6c0.9,0,1.6,0.1,2.2,0.2v-8.6c-0.5-0.1-0.9-0.1-1.6-0.1c-2.8,0-6.7,1.7-8.4,6.5
				l-0.1,0.3h-1.1l-0.4-6h-7.7c0.2,2.6,0.2,5.5,0.2,10.3V95.6z"/>
		</g>
		<g>
			<path class="st1" d="M384.3,159.1c-0.2-5.4-0.4-12-0.4-18.5h-0.1c-1.5,5.8-3.3,12.2-5.1,17.5l-5.5,17.6h-8l-4.8-17.4
				c-1.5-5.3-2.9-11.8-4.1-17.7h-0.1c-0.2,6.1-0.5,13-0.7,18.7l-0.9,17.1h-9.4l2.9-45.1h13.6l4.4,15c1.5,5.2,2.8,10.8,3.8,16.1h0.3
				c1.2-5.2,2.7-11.2,4.3-16.2l4.7-15h13.4l2.4,45.1h-9.9L384.3,159.1z"/>
			<path class="st1" d="M395.5,176.8h-10.9l-0.8-17.7c-0.1-3.9-0.3-9.5-0.4-15.2c-1.3,4.8-2.8,9.9-4.3,14.3l-5.6,17.9h-8.7
				l-4.9-17.8c-1.1-4.2-2.3-9.1-3.4-14.1c-0.2,5.4-0.4,10.7-0.6,15l-0.9,17.6h-10.4l2.9-46.1H362l4.5,15.4c1.4,4.8,2.5,9.8,3.5,14.5
				c1.2-5.2,2.6-10.4,3.9-14.6l4.9-15.3H393L395.5,176.8z M385.5,175.8h8.9l-2.4-44.1h-12.5l-4.6,14.6c-1.4,4.6-3,10.4-4.3,16.1
				l-0.1,0.4h-1.1l-0.1-0.4c-1-5.2-2.3-10.8-3.8-16.1l-4.3-14.7h-12.7l-2.8,44.1h8.4l0.8-16.6c0.2-5.2,0.5-12,0.7-18.6l0-0.5h1
				l0.1,0.4c1.2,6,2.6,12.4,4.1,17.6l4.7,17h7.2l5.4-17.2c1.8-5.4,3.6-11.7,5.1-17.4l0.1-0.4h1v0.5c0,6.9,0.2,13.9,0.4,18.5
				L385.5,175.8z"/>
		</g>
		<g>
			<path class="st1" d="M429.9,168.4c0,3.1,0.1,6.1,0.5,7.9h-9.2l-0.6-3.3h-0.2c-2.1,2.6-5.5,4-9.4,4c-6.6,0-10.6-4.8-10.6-10
				c0-8.5,7.6-12.5,19.2-12.5v-0.4c0-1.8-0.9-4.3-6-4.3c-3.3,0-6.9,1.1-9,2.5l-1.9-6.6c2.3-1.3,6.8-2.9,12.7-2.9
				c10.9,0,14.3,6.4,14.3,14.2V168.4z M420,160.9c-5.3,0-9.5,1.3-9.5,5.1c0,2.6,1.7,3.9,4,3.9c2.5,0,4.6-1.7,5.3-3.7
				c0.1-0.5,0.2-1.1,0.2-1.7V160.9z"/>
			<path class="st1" d="M411.1,177.5c-7.2,0-11.1-5.4-11.1-10.5c0-8.2,7-12.9,19.2-13c0-2.4-1.9-3.7-5.5-3.7c-3.4,0-6.9,1.2-8.8,2.4
				l-0.6,0.4l-2.2-7.6l0.3-0.2c1.3-0.7,5.9-3,12.9-3c9.7,0,14.8,5.1,14.8,14.7v11.4c0,3.6,0.2,6.2,0.5,7.8l0.1,0.6h-10.2l-0.5-2.9
				C418.1,176.3,414.8,177.5,411.1,177.5z M419.7,155c-7,0-18.7,1.6-18.7,12c0,4.7,3.5,9.5,10.1,9.5c3.8,0,6.9-1.4,9-3.8l0.2-0.2
				h0.9l0.6,3.3h8.1c-0.3-1.7-0.4-4.1-0.4-7.4V157c0-9.1-4.6-13.7-13.8-13.7c-6.2,0-10.5,1.9-12.1,2.7l1.6,5.5
				c2.4-1.4,5.8-2.2,8.7-2.2c5.6,0,6.5,3,6.5,4.8v0.9H419.7z M414.6,170.4c-2.8,0-4.5-1.7-4.5-4.4c0-3.7,3.4-5.6,10-5.6h0.5v4
				c0,0.7-0.1,1.3-0.2,1.9C419.5,168.7,417.1,170.4,414.6,170.4z M419.5,161.4c-5.6,0.1-8.5,1.6-8.5,4.6c0,2.1,1.3,3.4,3.5,3.4
				c2.1,0,4.2-1.4,4.8-3.4c0.1-0.5,0.2-1,0.2-1.6V161.4z"/>
		</g>
		<g>
			<path class="st1" d="M438,128.8h10.2v47.5H438V128.8z"/>
			<path class="st1" d="M448.6,176.8h-11.2v-48.5h11.2V176.8z M438.5,175.8h9.2v-46.5h-9.2V175.8z"/>
		</g>
		<g>
			<path class="st1" d="M483.6,168.4c0,3.1,0.1,6.1,0.5,7.9h-9.2l-0.6-3.3h-0.2c-2.1,2.6-5.5,4-9.4,4c-6.6,0-10.6-4.8-10.6-10
				c0-8.5,7.6-12.5,19.2-12.5v-0.4c0-1.8-0.9-4.3-6-4.3c-3.3,0-6.9,1.1-9,2.5l-1.9-6.6c2.3-1.3,6.8-2.9,12.7-2.9
				c10.9,0,14.3,6.4,14.3,14.2V168.4z M473.7,160.9c-5.3,0-9.5,1.3-9.5,5.1c0,2.6,1.7,3.9,4,3.9c2.5,0,4.6-1.7,5.3-3.7
				c0.1-0.5,0.2-1.1,0.2-1.7V160.9z"/>
			<path class="st1" d="M464.8,177.5c-7.2,0-11.1-5.4-11.1-10.5c0-8.2,7-12.9,19.2-13c0-2.4-1.9-3.7-5.5-3.7c-3.4,0-6.9,1.2-8.8,2.4
				l-0.6,0.4l-2.2-7.6l0.3-0.2c1.3-0.7,5.9-3,12.9-3c9.7,0,14.8,5.1,14.8,14.7v11.4c0,3.6,0.2,6.2,0.5,7.8l0.1,0.6h-10.2l-0.5-2.9
				C471.8,176.3,468.5,177.5,464.8,177.5z M473.4,155c-7,0-18.7,1.6-18.7,12c0,4.7,3.5,9.5,10.1,9.5c3.8,0,6.9-1.4,9-3.8l0.2-0.2
				h0.9l0.6,3.3h8.1c-0.3-1.7-0.4-4.1-0.4-7.4V157c0-9.1-4.6-13.7-13.8-13.7c-6.2,0-10.5,1.9-12.1,2.7l1.6,5.5
				c2.4-1.4,5.8-2.2,8.7-2.2c5.6,0,6.5,3,6.5,4.8v0.9H473.4z M468.2,170.4c-2.8,0-4.5-1.7-4.5-4.4c0-3.7,3.4-5.6,10-5.6h0.5v4
				c0,0.7-0.1,1.3-0.2,1.9C473.2,168.7,470.8,170.4,468.2,170.4z M473.2,161.4c-5.6,0.1-8.5,1.6-8.5,4.6c0,2.1,1.3,3.4,3.5,3.4
				c2.1,0,4.2-1.4,4.8-3.4c0.1-0.5,0.2-1,0.2-1.6V161.4z"/>
		</g>
		<g>
			<path class="st1" d="M498.5,143.6l4.9,16.1c0.5,1.9,1.2,4.3,1.6,6.1h0.3c0.4-1.8,0.9-4.2,1.4-6.2l4.1-16h10.8l-7.6,21.5
				c-4.7,13-7.8,18.2-11.5,21.5c-3.5,3.1-7.2,4.2-9.8,4.5l-2.2-8.6c1.3-0.3,2.9-0.9,4.4-1.7c1.5-0.8,3.3-2.5,4.2-4.1
				c0.3-0.5,0.5-1.1,0.5-1.5s-0.1-0.9-0.4-1.7l-12-30H498.5z"/>
			<path class="st1" d="M492.3,191.6l-2.4-9.5l0.5-0.1c1.3-0.3,2.9-0.9,4.3-1.7c1.5-0.8,3.1-2.4,4-3.9c0.3-0.5,0.5-0.9,0.5-1.2
				c0-0.3,0-0.7-0.4-1.5l-12.3-30.6h12.4l5,16.5c0.4,1.3,0.9,3.1,1.2,4.6c0.3-1.5,0.7-3.2,1.1-4.6l4.2-16.4h11.9l-7.9,22.2
				c-5,13.8-8.1,18.5-11.6,21.7c-4,3.5-8,4.4-10,4.6L492.3,191.6z M491.1,182.9l2,7.6c1.8-0.3,5.5-1.1,9.1-4.3
				c3.4-3,6.5-7.6,11.4-21.3l7.4-20.9h-9.7l-4,15.7c-0.5,1.9-1,4.3-1.4,6.1l-0.1,0.4h-1.1l-0.1-0.4c-0.4-1.8-1.1-4.3-1.6-6.1
				l-4.8-15.8h-10.2l11.8,29.3c0.4,0.9,0.4,1.5,0.4,1.9c0,0.5-0.2,1.1-0.6,1.7c-1,1.7-2.8,3.4-4.4,4.3
				C493.8,182,492.3,182.6,491.1,182.9z"/>
		</g>
		<g>
			<path class="st1" d="M524.7,167.5c1.9,1.1,5.8,2.4,8.8,2.4c3.1,0,4.3-1,4.3-2.7c0-1.7-1-2.5-4.7-3.8c-6.8-2.3-9.4-6-9.4-9.8
				c0-6.2,5.2-10.8,13.3-10.8c3.8,0,7.2,0.9,9.2,1.9l-1.7,7c-1.5-0.8-4.3-1.9-7.1-1.9c-2.5,0-3.9,1-3.9,2.6c0,1.6,1.3,2.4,5.3,3.8
				c6.2,2.1,8.8,5.3,8.8,10.1c0,6.2-4.7,10.6-14.1,10.6c-4.3,0-8.1-1-10.6-2.3L524.7,167.5z"/>
			<path class="st1" d="M533.4,177.5c-4,0-8-0.9-10.8-2.4l-0.3-0.2l2.1-8.3l0.6,0.4c1.8,1.1,5.6,2.3,8.5,2.3c3.8,0,3.8-1.6,3.8-2.2
				c0-1.4-0.7-2.1-4.4-3.3c-8.1-2.7-9.8-7.1-9.7-10.3c0-6.6,5.7-11.3,13.8-11.3c3.4,0,6.9,0.7,9.4,2l0.4,0.2l-2,8l-0.6-0.3
				c-1.2-0.7-4.1-1.8-6.8-1.8c-1,0-3.4,0.2-3.4,2.1c0,1.3,1.1,2,4.9,3.3c6.3,2.2,9.1,5.4,9.2,10.6
				C548,173.3,542.5,177.5,533.4,177.5z M523.5,174.4c2.6,1.3,6.3,2.1,10,2.1c8.5,0,13.6-3.8,13.6-10.1c-0.1-4.7-2.7-7.6-8.5-9.6
				c-4-1.4-5.6-2.3-5.6-4.3c0-1.9,1.7-3.1,4.4-3.1c2.6,0,5.3,0.9,6.8,1.6l1.5-6c-1.2-0.6-4.3-1.7-8.6-1.7c-7.5,0-12.8,4.2-12.8,10.3
				c-0.1,4.1,3,7.4,9,9.4c3.6,1.2,5.1,2.1,5.1,4.3c0,1.4-0.8,3.2-4.8,3.2c-2.8,0-6.3-1.1-8.4-2.2L523.5,174.4z"/>
		</g>
		<g>
			<path class="st1" d="M564.3,134.5c0,2.8-2.1,5.1-5.5,5.1c-3.2,0-5.3-2.3-5.3-5.1c0-2.9,2.1-5.1,5.4-5.1
				C562.2,129.4,564.2,131.6,564.3,134.5z M553.8,176.3v-32.7h10.2v32.7H553.8z"/>
			<path class="st1" d="M564.4,176.8h-11.2v-33.7h11.2V176.8z M554.3,175.8h9.2v-31.7h-9.2V175.8z M558.8,140.1
				c-3.4,0-5.8-2.3-5.8-5.6c0-3.2,2.5-5.6,5.9-5.6c3.4,0,5.8,2.3,5.8,5.6C564.8,137.8,562.3,140.1,558.8,140.1z M558.9,129.9
				c-2.9,0-4.9,1.9-4.9,4.6c0,2.7,2,4.6,4.8,4.6c2.9,0,5-1.9,5-4.6C563.7,131.8,561.8,129.9,558.9,129.9z"/>
		</g>
		<g>
			<path class="st1" d="M599.3,168.4c0,3.1,0.1,6.1,0.5,7.9h-9.2l-0.6-3.3h-0.2c-2.1,2.6-5.5,4-9.4,4c-6.6,0-10.6-4.8-10.6-10
				c0-8.5,7.6-12.5,19.2-12.5v-0.4c0-1.8-0.9-4.3-6-4.3c-3.3,0-6.9,1.1-9,2.5l-1.9-6.6c2.3-1.3,6.8-2.9,12.7-2.9
				c10.9,0,14.3,6.4,14.3,14.2V168.4z M589.5,160.9c-5.3,0-9.5,1.3-9.5,5.1c0,2.6,1.7,3.9,4,3.9c2.5,0,4.6-1.7,5.3-3.7
				c0.1-0.5,0.2-1.1,0.2-1.7V160.9z"/>
			<path class="st1" d="M580.5,177.5c-7.2,0-11.1-5.4-11.1-10.5c0-8.2,7-12.9,19.2-13c0-2.4-1.9-3.7-5.5-3.7c-3.4,0-6.9,1.2-8.8,2.4
				l-0.6,0.4l-2.2-7.6l0.3-0.2c1.3-0.7,5.9-3,12.9-3c9.7,0,14.8,5.1,14.8,14.7v11.4c0,3.6,0.2,6.2,0.5,7.8l0.1,0.6h-10.2l-0.5-2.9
				C587.5,176.3,584.3,177.5,580.5,177.5z M589.1,155c-7,0-18.7,1.6-18.7,12c0,4.7,3.5,9.5,10.1,9.5c3.8,0,6.9-1.4,9-3.8l0.2-0.2
				h0.9l0.6,3.3h8.1c-0.3-1.7-0.4-4.1-0.4-7.4V157c0-9.1-4.6-13.7-13.8-13.7c-6.2,0-10.5,1.9-12.1,2.7l1.6,5.5
				c2.4-1.4,5.8-2.2,8.7-2.2c5.6,0,6.5,3,6.5,4.8v0.9H589.1z M584,170.4c-2.8,0-4.5-1.7-4.5-4.4c0-3.7,3.4-5.6,10-5.6h0.5v4
				c0,0.7-0.1,1.3-0.2,1.9C589,168.7,586.6,170.4,584,170.4z M589,161.4c-5.6,0.1-8.5,1.6-8.5,4.6c0,2.1,1.3,3.4,3.5,3.4
				c2.1,0,4.2-1.4,4.8-3.4c0.1-0.5,0.2-1,0.2-1.6V161.4z"/>
		</g>
	</g>
</g>
</svg>
