<svg width="1480" height="708" viewBox="0 0 1480 708" fill="none" xmlns="http://www.w3.org/2000/svg">
<g filter="url(#filter0_d_108_707)">
<circle cx="304" cy="400" r="300" fill="#FEFAF4"/>
</g>
<g filter="url(#filter1_i_108_707)">
<ellipse cx="304" cy="400.5" rx="274" ry="264.5" fill="#75A589"/>
</g>
<g filter="url(#filter2_i_108_707)">
<path d="M281.009 292.598C274.873 292.598 268.948 294.819 263.235 299.263C257.734 303.494 252.444 309.419 247.366 317.036C242.288 324.442 237.316 333.223 232.449 343.379C227.794 353.324 223.139 364.009 218.484 375.435V379.243C217.85 397.863 217.215 417.646 216.58 438.594C216.157 459.541 215.945 482.393 215.945 507.148C215.945 511.38 214.464 514.977 211.502 517.939C208.751 520.69 205.472 523.018 201.663 524.922C197.854 526.615 193.94 527.884 189.92 528.73C185.9 529.577 182.62 530 180.081 530C176.907 530 173.945 529.048 171.194 527.144C168.444 525.239 167.068 521.007 167.068 514.448C167.068 511.274 167.386 507.36 168.021 502.705C168.655 497.839 169.502 492.655 170.56 487.153C171.406 481.652 172.464 476.045 173.733 470.332C174.791 464.408 175.849 458.906 176.907 453.828C176.907 435.843 176.907 419.657 176.907 405.269C176.696 390.881 176.59 378.079 176.59 366.865C176.59 355.651 176.59 345.812 176.59 337.349C176.378 328.885 176.272 321.585 176.272 315.449C176.272 305.293 176.484 297.887 176.907 293.232C177.119 288.366 177.542 284.98 178.177 283.076C179.235 280.114 181.139 277.786 183.89 276.094C186.852 274.401 189.92 273.132 193.094 272.285C196.268 271.227 199.441 270.592 202.615 270.381C205.789 270.169 208.222 270.063 209.915 270.063C213.935 270.063 216.58 271.227 217.85 273.555C219.119 275.882 219.754 279.479 219.754 284.346C219.754 295.348 219.754 305.293 219.754 314.18C219.754 323.066 219.542 331.953 219.119 340.84C223.139 331.318 227.794 322.326 233.084 313.862C238.585 305.187 244.616 297.676 251.175 291.328C257.734 284.769 264.611 279.585 271.805 275.776C279.21 271.968 286.827 270.063 294.656 270.063C304.178 270.063 312.007 272.074 318.143 276.094C324.49 279.902 329.463 285.298 333.06 292.28C336.868 299.263 339.619 307.515 341.312 317.036C343.216 326.346 344.485 336.502 345.12 347.505C351.045 336.714 357.392 326.663 364.163 317.354C371.146 307.832 378.445 299.58 386.062 292.598C393.891 285.615 402.037 280.114 410.501 276.094C419.176 272.074 428.169 270.063 437.479 270.063C453.559 270.063 465.302 275.142 472.708 285.298C480.114 295.243 483.816 308.784 483.816 325.923C483.816 336.714 482.97 348.774 481.277 362.104C479.585 375.435 477.786 388.976 475.882 402.729C473.978 416.271 472.179 429.601 470.486 442.72C468.794 455.838 467.947 467.793 467.947 478.584C467.947 491.702 471.227 498.262 477.786 498.262C481.172 498.262 484.874 496.252 488.895 492.231C492.915 488 497.464 481.652 502.542 473.188C507.832 464.513 513.862 453.617 520.633 440.498C527.615 427.38 535.656 411.722 544.754 393.525L547.928 386.86L560.94 396.699L557.767 403.364C545.283 428.332 534.598 448.962 525.711 465.254C517.036 481.546 509.207 494.559 502.225 504.292C495.242 513.813 488.577 520.479 482.229 524.287C476.093 528.096 469.217 530 461.6 530C457.156 530 452.819 529.365 448.587 528.096C444.355 526.826 440.652 524.604 437.479 521.431C434.305 518.257 431.766 514.025 429.861 508.735C427.957 503.234 427.005 496.252 427.005 487.788C427.005 475.093 427.851 460.811 429.544 444.941C431.237 429.072 433.141 413.203 435.257 397.334C437.373 381.465 439.277 366.548 440.97 352.583C442.662 338.407 443.509 326.875 443.509 317.988C443.509 310.16 441.816 303.918 438.431 299.263C435.045 294.396 429.967 291.963 423.196 291.963C416.425 291.963 409.337 294.608 401.932 299.897C394.738 305.187 387.649 312.064 380.667 320.527C373.896 328.779 367.443 338.089 361.307 348.457C355.382 358.825 350.198 369.087 345.755 379.243C345.755 401.46 345.543 420.926 345.12 437.642C344.697 454.146 344.062 468.11 343.216 479.536C342.581 490.962 341.629 500.06 340.359 506.831C339.09 513.39 337.715 517.834 336.233 520.161C335.175 521.642 333.377 523.018 330.838 524.287C328.299 525.557 325.442 526.615 322.269 527.461C319.306 528.307 316.344 528.942 313.382 529.365C310.631 529.788 308.515 530 307.034 530C303.649 530 300.687 529.048 298.147 527.144C295.82 525.028 294.656 521.007 294.656 515.083C294.656 512.332 294.868 508.63 295.291 503.975C295.926 499.32 296.666 494.136 297.513 488.423C298.359 482.71 299.311 476.574 300.369 470.015C301.427 463.455 302.485 456.79 303.543 450.02C303.755 443.672 303.966 436.584 304.178 428.755C304.389 420.926 304.601 413.203 304.812 405.586C305.024 397.757 305.13 390.352 305.13 383.369C305.341 376.175 305.447 370.039 305.447 364.961C305.447 354.17 305.13 344.331 304.495 335.444C303.86 326.558 302.591 318.94 300.687 312.593C298.994 306.245 296.561 301.379 293.387 297.993C290.213 294.396 286.087 292.598 281.009 292.598ZM564.432 390.352L561.258 396.699L558.084 403.364L545.071 393.525L548.245 386.86C553.535 376.069 557.872 365.278 561.258 354.487C564.855 343.485 567.711 333.223 569.827 323.701C572.155 314.18 574.059 305.822 575.54 298.628C577.021 291.434 578.502 286.25 579.983 283.076C581.253 280.537 583.051 278.527 585.379 277.046C587.918 275.353 590.457 273.978 592.996 272.92C595.747 271.862 598.286 271.121 600.613 270.698C603.152 270.275 604.951 270.063 606.009 270.063C610.664 270.063 613.732 271.016 615.213 272.92C616.906 274.824 617.752 278.21 617.752 283.076C617.752 285.404 617.223 291.222 616.165 300.532C615.319 309.631 614.261 321.162 612.991 335.127C611.933 348.88 610.875 364.432 609.817 381.782C608.971 398.921 608.548 416.694 608.548 435.103C608.548 448.433 609.183 459.012 610.452 466.841C611.722 474.458 613.309 480.171 615.213 483.979C617.329 487.788 619.55 490.221 621.878 491.279C624.417 492.337 626.956 492.866 629.495 492.866C632.881 492.866 636.689 491.385 640.921 488.423C645.153 485.461 650.125 480.277 655.838 472.871C661.551 465.254 668.11 455.098 675.516 442.402C682.921 429.495 691.596 413.203 701.541 393.525L705.032 386.86L718.045 396.699L714.554 403.364C706.513 419.022 698.473 434.468 690.433 449.702C682.604 464.937 674.563 478.478 666.312 490.327C658.271 502.176 650.125 511.803 641.873 519.209C633.621 526.403 625.369 530 617.117 530C608.442 530 600.931 528.307 594.583 524.922C588.447 521.325 583.263 515.506 579.031 507.466C575.011 499.425 571.943 488.846 569.827 475.728C567.923 462.397 566.971 445.999 566.971 426.533C566.971 421.032 566.971 415.319 566.971 409.395C566.971 403.258 567.182 396.911 567.605 390.352H564.432ZM629.495 205C629.495 212.406 626.956 218.647 621.878 223.726C617.011 228.592 610.875 231.025 603.47 231.025C596.276 231.025 590.14 228.592 585.062 223.726C579.983 218.647 577.444 212.406 577.444 205C577.444 197.806 579.983 191.67 585.062 186.592C590.14 181.514 596.276 178.975 603.47 178.975C610.875 178.975 617.011 181.514 621.878 186.592C626.956 191.67 629.495 197.806 629.495 205ZM827.225 291.963C821.3 291.963 814.635 294.608 807.229 299.897C800.035 305.187 792.736 312.064 785.33 320.527C777.924 328.779 770.73 338.089 763.748 348.457C756.977 358.825 751.053 369.087 745.975 379.243C745.34 397.863 744.705 418.175 744.07 440.181C743.647 462.186 743.436 485.672 743.436 510.64C743.436 513.813 741.954 516.67 738.992 519.209C736.242 521.536 732.962 523.547 729.153 525.239C725.345 526.72 721.43 527.884 717.41 528.73C713.39 529.577 710.11 530 707.571 530C704.397 530 701.435 529.048 698.685 527.144C695.934 525.239 694.559 521.007 694.559 514.448C694.559 511.274 694.876 507.36 695.511 502.705C696.146 497.839 696.992 492.655 698.05 487.153C698.896 481.652 699.954 476.045 701.224 470.332C702.282 464.408 703.34 458.906 704.397 453.828V298.628C704.397 294.396 704.503 291.117 704.715 288.789C704.715 286.25 705.032 284.346 705.667 283.076C706.937 280.114 709.158 277.786 712.332 276.094C715.506 274.401 718.891 273.132 722.488 272.285C726.085 271.227 729.576 270.592 732.962 270.381C736.347 270.169 738.992 270.063 740.896 270.063C744.493 270.063 746.927 271.016 748.196 272.92C749.677 274.824 750.418 278.21 750.418 283.076C750.418 282.441 749.889 287.625 748.831 298.628C747.985 309.631 747.244 325.394 746.609 345.918C752.957 335.973 759.834 326.452 767.239 317.354C774.645 308.255 782.368 300.215 790.408 293.232C798.449 286.25 806.701 280.643 815.164 276.411C823.839 272.179 832.62 270.063 841.507 270.063C857.376 270.063 869.013 275.142 876.419 285.298C883.825 295.243 887.527 308.784 887.527 325.923C887.527 336.714 886.787 348.774 885.306 362.104C884.036 375.223 882.449 388.659 880.545 402.412C878.852 415.954 877.265 429.284 875.784 442.402C874.515 455.309 873.88 467.158 873.88 477.949C873.88 491.914 878.217 498.896 886.893 498.896C889.643 498.896 892.817 497.521 896.414 494.771C900.223 491.808 904.878 486.413 910.379 478.584C916.092 470.755 922.863 460.07 930.691 446.528C938.52 432.775 947.83 415.107 958.621 393.525L961.795 386.86L974.808 396.699L971.634 403.364C958.938 428.755 947.618 449.596 937.674 465.889C927.941 482.181 919.054 495.088 911.014 504.609C902.973 514.131 895.462 520.796 888.479 524.604C881.497 528.201 874.515 530 867.532 530C863.089 530 858.646 529.365 854.202 528.096C849.759 526.826 845.844 524.604 842.459 521.431C839.074 518.257 836.323 514.025 834.207 508.735C832.091 503.234 831.033 496.252 831.033 487.788C831.033 475.093 831.88 460.811 833.572 444.941C835.265 429.072 837.169 413.203 839.285 397.334C841.401 381.465 843.305 366.548 844.998 352.583C846.691 338.407 847.537 326.875 847.537 317.988C847.537 310.16 845.844 303.918 842.459 299.263C839.074 294.396 833.995 291.963 827.225 291.963ZM960.843 425.898C960.843 403.47 961.689 380.936 963.382 358.296C965.075 335.656 967.296 312.699 970.047 289.424H941.165L944.656 270.063H972.586C975.548 248.481 978.51 226.899 981.473 205.317C984.646 183.524 987.503 161.73 990.042 139.937H1022.42C1021.99 144.591 1021.36 151.362 1020.51 160.249C1019.88 168.924 1019.03 179.08 1017.97 190.718C1017.13 202.144 1016.28 214.733 1015.43 228.486C1014.59 242.028 1013.74 255.887 1012.89 270.063H1074.47L1071.29 289.424H1011.62C1010.78 301.484 1010.04 313.333 1009.4 324.971C1008.77 336.608 1008.13 347.716 1007.5 358.296C1007.07 368.664 1006.76 378.291 1006.55 387.178C1006.33 395.853 1006.23 403.364 1006.23 409.712C1006.23 425.793 1006.65 439.229 1007.5 450.02C1008.56 460.811 1010.04 469.486 1011.94 476.045C1014.06 482.604 1016.6 487.259 1019.56 490.01C1022.73 492.76 1026.33 494.136 1030.35 494.136C1035.64 494.136 1041.46 491.491 1047.81 486.201C1054.36 480.7 1061.14 473.4 1068.12 464.302C1075.1 455.203 1082.19 444.624 1089.38 432.563C1096.58 420.291 1103.56 407.279 1110.33 393.525L1113.5 386.86L1126.52 396.699L1123.34 403.364C1113.61 423.042 1103.88 440.71 1094.14 456.367C1084.62 472.025 1075.21 485.355 1065.9 496.357C1056.59 507.148 1047.49 515.506 1038.6 521.431C1029.71 527.144 1021.15 530 1012.89 530C1004.64 530 997.236 528.096 990.677 524.287C984.329 520.479 978.934 514.448 974.49 506.196C970.047 497.733 966.661 486.942 964.334 473.823C962.007 460.705 960.843 444.73 960.843 425.898ZM1133.82 278.95C1134.66 276.834 1136.67 275.142 1139.85 273.872C1143.02 272.603 1146.41 271.756 1150 271.333C1153.6 270.698 1156.99 270.381 1160.16 270.381C1163.33 270.169 1165.45 270.063 1166.51 270.063C1169.68 270.063 1171.69 270.91 1172.54 272.603C1173.6 274.084 1174.12 276.517 1174.12 279.902C1174.12 281.595 1173.6 285.404 1172.54 291.328C1171.48 297.041 1170.1 304.235 1168.41 312.91C1166.93 321.585 1165.24 331.424 1163.33 342.427C1161.64 353.429 1159.95 364.749 1158.25 376.387C1156.77 388.024 1155.5 399.873 1154.45 411.934C1153.39 423.783 1152.86 434.997 1152.86 445.576C1152.86 463.984 1155.93 477.843 1162.06 487.153C1168.2 496.252 1175.29 500.801 1183.33 500.801C1197.29 500.801 1209.67 490.539 1220.46 470.015C1231.25 449.491 1242.47 419.445 1254.1 379.878V287.52C1254.1 283.923 1255.69 281.066 1258.87 278.95C1262.25 276.623 1266.06 274.824 1270.29 273.555C1274.52 272.285 1278.65 271.439 1282.67 271.016C1286.69 270.381 1289.55 270.063 1291.24 270.063C1297.8 270.063 1301.08 273.343 1301.08 279.902C1301.08 282.23 1300.87 286.144 1300.44 291.646C1300.23 296.935 1299.91 303.283 1299.49 310.688C1299.07 317.882 1298.64 325.923 1298.22 334.81C1298.01 343.485 1297.9 352.266 1297.9 361.152V490.327C1301.71 485.461 1306.47 479.007 1312.19 470.967C1318.11 462.926 1324.14 454.357 1330.28 445.259C1336.62 436.16 1342.65 427.062 1348.37 417.964C1354.29 408.866 1359.05 400.719 1362.65 393.525L1366.14 386.86L1379.15 396.699L1375.66 403.364C1371.22 412.251 1365.93 421.455 1359.79 430.977C1353.66 440.498 1347.1 450.125 1340.12 459.858C1333.34 469.38 1326.26 478.901 1318.85 488.423C1311.66 497.733 1304.67 506.619 1297.9 515.083V585.225C1297.9 604.691 1296.1 621.195 1292.51 634.736C1289.12 648.49 1284.36 659.598 1278.23 668.062C1272.09 676.737 1264.9 682.979 1256.64 686.787C1248.39 690.596 1239.4 692.5 1229.67 692.5C1223.53 692.5 1217.82 691.548 1212.53 689.644C1207.45 687.739 1203.01 684.883 1199.2 681.074C1195.39 677.477 1192.43 673.034 1190.31 667.744C1188.19 662.666 1187.14 656.847 1187.14 650.288C1187.14 640.767 1188.83 631.245 1192.21 621.724C1195.81 612.202 1200.68 602.363 1206.81 592.207C1213.16 582.051 1220.46 571.577 1228.71 560.786C1236.97 550.207 1245.85 539.098 1255.37 527.461V431.294C1250.08 445.682 1244.37 459.012 1238.24 471.284C1232.1 483.345 1225.43 493.713 1218.24 502.388C1211.05 511.063 1203.32 517.834 1195.07 522.7C1186.82 527.567 1177.93 530 1168.41 530C1161.64 530 1154.66 528.942 1147.46 526.826C1140.48 524.499 1133.92 520.373 1127.79 514.448C1121.86 508.524 1117 500.589 1113.19 490.645C1109.38 480.488 1107.47 467.581 1107.47 451.924C1107.47 434.15 1108.53 416.06 1110.65 397.651C1112.76 379.243 1115.2 362.104 1117.95 346.235C1120.91 330.366 1123.87 316.507 1126.83 304.658C1129.8 292.598 1132.12 284.028 1133.82 278.95ZM1226.17 673.14C1229.56 673.14 1232.95 672.399 1236.33 670.918C1239.93 669.648 1243.1 666.58 1245.85 661.714C1248.6 656.847 1250.82 649.653 1252.52 640.132C1254.42 630.61 1255.37 617.703 1255.37 601.411V553.486C1248.18 562.373 1241.51 570.942 1235.38 579.194C1229.45 587.658 1224.27 595.804 1219.83 603.633C1215.38 611.673 1211.89 619.396 1209.35 626.802C1206.81 634.207 1205.54 641.401 1205.54 648.384C1205.54 654.943 1207.34 660.656 1210.94 665.522C1214.54 670.601 1219.62 673.14 1226.17 673.14Z" fill="white"/>
</g>
<path d="M520.614 251.161C522.307 251.035 524.642 250.839 527.521 250.541C533.914 249.881 542.984 248.724 553.663 246.742C575.045 242.773 602.776 235.512 628.391 222.359C654.008 209.205 677.325 190.255 690.199 162.991C702.864 136.17 705.598 100.928 689.884 54.5197C688.91 54.7137 687.602 54.992 685.996 55.3741C682.145 56.2907 676.583 57.8042 669.795 60.1827C656.217 64.9405 637.754 73.1529 618.277 86.9584C579.832 114.208 537.279 163.349 520.614 251.161Z" fill="#CBFFE1" stroke="#236148" stroke-width="5"/>
<path d="M668.564 83.7287C668.538 83.686 668.475 83.6892 668.453 83.7341C636.463 149.842 587.752 206.217 527.15 247.271C573.196 217.089 612.985 178.275 644.373 132.918C654.176 119.008 662.925 104.373 670.547 89.1361C671.566 87.1001 670.652 84.6356 668.564 83.7287Z" fill="#2D664F"/>
<path d="M690.085 127.173C677.628 131.421 665.574 136.754 654.06 143.112L618.963 160.937L621.98 163.159C625.023 141.7 631.332 111.893 631.303 90.4828C624.253 112.343 621.241 143.764 617.21 166.518C617.731 166.167 653.921 147.813 655.964 146.853C667.882 141.28 679.297 134.697 690.085 127.173Z" fill="#225B43"/>
<path d="M656.677 166.483C644.454 169.952 632.578 174.521 621.19 180.136L586.563 195.637L589.49 197.579C589 176.46 590.371 146.751 586.837 126.134C583.59 146.618 585.538 176.607 585.318 197.549L585.348 200.783L588.293 199.461L622.921 183.96C634.672 179.148 645.968 173.3 656.677 166.483Z" fill="#2E553A"/>
<path d="M626.792 211.827C615.705 211.437 604.621 212.225 593.723 214.178L561.08 218.437L563.477 220.499C563.111 204.524 564.228 182.086 560.915 166.553C557.811 182.002 559.442 204.661 559.335 220.518L559.316 222.902L561.683 222.61L594.442 218.212C605.512 217.295 616.438 215.174 627.029 211.886L626.792 211.827Z" fill="#2E553A"/>
<defs>
<filter id="filter0_d_108_707" x="0" y="100" width="608" height="608" filterUnits="userSpaceOnUse" color-interpolation-filters="sRGB">
<feFlood flood-opacity="0" result="BackgroundImageFix"/>
<feColorMatrix in="SourceAlpha" type="matrix" values="0 0 0 0 0 0 0 0 0 0 0 0 0 0 0 0 0 0 127 0" result="hardAlpha"/>
<feOffset dy="4"/>
<feGaussianBlur stdDeviation="2"/>
<feComposite in2="hardAlpha" operator="out"/>
<feColorMatrix type="matrix" values="0 0 0 0 0 0 0 0 0 0 0 0 0 0 0 0 0 0 0.25 0"/>
<feBlend mode="normal" in2="BackgroundImageFix" result="effect1_dropShadow_108_707"/>
<feBlend mode="normal" in="SourceGraphic" in2="effect1_dropShadow_108_707" result="shape"/>
</filter>
<filter id="filter1_i_108_707" x="30" y="136" width="548" height="533" filterUnits="userSpaceOnUse" color-interpolation-filters="sRGB">
<feFlood flood-opacity="0" result="BackgroundImageFix"/>
<feBlend mode="normal" in="SourceGraphic" in2="BackgroundImageFix" result="shape"/>
<feColorMatrix in="SourceAlpha" type="matrix" values="0 0 0 0 0 0 0 0 0 0 0 0 0 0 0 0 0 0 127 0" result="hardAlpha"/>
<feOffset dy="4"/>
<feGaussianBlur stdDeviation="2"/>
<feComposite in2="hardAlpha" operator="arithmetic" k2="-1" k3="1"/>
<feColorMatrix type="matrix" values="0 0 0 0 0 0 0 0 0 0 0 0 0 0 0 0 0 0 0.25 0"/>
<feBlend mode="normal" in2="shape" result="effect1_innerShadow_108_707"/>
</filter>
<filter id="filter2_i_108_707" x="167.068" y="139.937" width="1212.08" height="556.563" filterUnits="userSpaceOnUse" color-interpolation-filters="sRGB">
<feFlood flood-opacity="0" result="BackgroundImageFix"/>
<feBlend mode="normal" in="SourceGraphic" in2="BackgroundImageFix" result="shape"/>
<feColorMatrix in="SourceAlpha" type="matrix" values="0 0 0 0 0 0 0 0 0 0 0 0 0 0 0 0 0 0 127 0" result="hardAlpha"/>
<feOffset dy="4"/>
<feGaussianBlur stdDeviation="2"/>
<feComposite in2="hardAlpha" operator="arithmetic" k2="-1" k3="1"/>
<feColorMatrix type="matrix" values="0 0 0 0 0 0 0 0 0 0 0 0 0 0 0 0 0 0 0.25 0"/>
<feBlend mode="normal" in2="shape" result="effect1_innerShadow_108_707"/>
</filter>
</defs>
</svg>
